<?xml version="1.0" encoding="utf-8"?>
<!-- Generator: Adobe Illustrator 24.1.1, SVG Export Plug-In . SVG Version: 6.00 Build 0)  -->
<svg version="1.1" id="Layer_1" xmlns="http://www.w3.org/2000/svg" xmlns:xlink="http://www.w3.org/1999/xlink" x="0px" y="0px"
	 viewBox="0 0 512 512" style="enable-background:new 0 0 512 512;" xml:space="preserve">
<style type="text/css">
	.st0{fill:rgb(37, 99, 235);}
</style>
<g id="XMLID_1_">
	<path id="XMLID_13_" class="st0" d="M463.2,36.6H48.8C22.1,36.6,0,58.7,0,85.5v341.1c0,26.8,22.1,48.8,48.8,48.8h414.3
		c26.8,0,48.8-22.1,48.8-48.8V85.5C512,58.7,489.9,36.6,463.2,36.6z M170.9,85.5h48.8v48.8h-48.8V85.5z M97.7,427.3H48.8v-48.8h48.8
		C97.7,378.5,97.7,427.3,97.7,427.3z M97.7,134.3H48.8V85.5h48.8C97.7,85.5,97.7,134.3,97.7,134.3z M219.8,427.3h-48.8v-48.8h48.8
		V427.3z M341.1,427.3h-48.8v-48.8h48.8V427.3z M195.3,329.6V183.1l145.7,73.3L195.3,329.6z M341.1,134.3h-48.8V85.5h48.8V134.3z
		 M463.2,427.3h-48.8v-48.8h48.8V427.3z M463.2,134.3h-48.8V85.5h48.8V134.3z"/>
</g>
</svg>
